<svg id="Layer_1" data-name="Layer 1" xmlns="http://www.w3.org/2000/svg" viewBox="0 0 512 512"><defs><style>.cls-1{fill:#141f38;}</style></defs><title>image-outline</title><path class="cls-1" d="M307.34,0H115.2a64,64,0,0,0-64,64V448a64,64,0,0,0,64,64H396.8a64,64,0,0,0,64-64V153.6ZM411.49,140.8H358.4A38.44,38.44,0,0,1,320,102.4V49.08ZM435.2,448a38.44,38.44,0,0,1-38.4,38.4H115.2A38.44,38.44,0,0,1,76.8,448V64a38.44,38.44,0,0,1,38.4-38.4H294.4v76.8a64,64,0,0,0,64,64h76.8Z"/><path class="cls-1" d="M326.4,243.2H185.6a32,32,0,0,0-32,32V390.4a32,32,0,0,0,32,32H326.4a32,32,0,0,0,32-32V275.2A32,32,0,0,0,326.4,243.2Zm6.4,147.2a6.41,6.41,0,0,1-6.4,6.4H185.6a6.41,6.41,0,0,1-6.4-6.4V275.2a6.41,6.41,0,0,1,6.4-6.4H326.4a6.41,6.41,0,0,1,6.4,6.4Z"/><polygon class="cls-1" points="243.2 358.4 230.4 345.6 192 384 320 384 281.6 320 243.2 358.4"/></svg>